<?xml version="1.0" ?><!DOCTYPE svg  PUBLIC '-//W3C//DTD SVG 1.1//EN'  'http://www.w3.org/Graphics/SVG/1.1/DTD/svg11.dtd'><svg enable-background="new 0 0 512 512" height="512px" id="Layer_1" version="1.1" viewBox="0 0 512 512" width="512px" xml:space="preserve" xmlns="http://www.w3.org/2000/svg" xmlns:xlink="http://www.w3.org/1999/xlink"><g><path d="M43.877,230.884h1.017c-0.446,2.152-0.683,4.381-0.683,6.665v3.334c0,18.041,14.625,32.667,32.666,32.667   h89.337c-0.433,1.933-0.669,3.938-0.669,6.001v0.667c0,15.096,12.237,27.333,27.333,27.333h256.667   c15.096,0,27.333-12.237,27.333-27.333v-0.667c0-15.096-12.237-27.333-27.333-27.333H212.855c1.307-3.531,2.022-7.35,2.022-11.335   v-3.334c0-2.284-0.236-4.513-0.683-6.665h210.35c10.861,0,19.666-8.805,19.666-19.667c0-10.861-8.805-19.666-19.666-19.666H43.877   c-10.861,0-19.666,8.805-19.666,19.666C24.211,222.079,33.016,230.884,43.877,230.884z" fill="#D7ECF4"/><path d="M475.543,85.55h-48.624c0.838,3.419,1.292,6.989,1.292,10.667c0,7.24-1.733,14.071-4.791,20.119   c7.951,0.93,14.125,7.68,14.125,15.881c0,8.837-7.164,16-16,16H158.877c-8.836,0-16-7.163-16-16s7.164-16,16-16h62.063   c-3.021-6.019-4.729-12.808-4.729-20c0-3.678,0.453-7.248,1.291-10.667H74.877c-9.572,0-17.333-7.761-17.333-17.333   c0-9.573,7.761-17.334,17.333-17.334h400.666c9.573,0,17.334,7.761,17.334,17.334C492.877,77.789,485.116,85.55,475.543,85.55z" fill="#D7ECF4"/><g><line fill="none" stroke="#231F20" stroke-linecap="round" stroke-linejoin="round" stroke-miterlimit="10" stroke-width="3" x1="48.495" x2="84.078" y1="58.211" y2="87.363"/><polyline fill="none" points="    47.182,49.755 47.997,57.965 39.787,58.78   " stroke="#231F20" stroke-linecap="round" stroke-linejoin="round" stroke-miterlimit="10" stroke-width="3"/><polyline fill="none" points="    84.75,95.617 83.935,87.407 92.145,86.592   " stroke="#231F20" stroke-linecap="round" stroke-linejoin="round" stroke-miterlimit="10" stroke-width="3"/><line fill="none" stroke="#231F20" stroke-linecap="round" stroke-linejoin="round" stroke-miterlimit="10" stroke-width="3" x1="44.695" x2="87.733" y1="80.578" y2="64.339"/><polyline fill="none" points="    36.716,77.486 44.233,80.886 40.834,88.403   " stroke="#231F20" stroke-linecap="round" stroke-linejoin="round" stroke-miterlimit="10" stroke-width="3"/><polyline fill="none" points="    95.217,67.883 87.699,64.485 91.098,56.968   " stroke="#231F20" stroke-linecap="round" stroke-linejoin="round" stroke-miterlimit="10" stroke-width="3"/><line fill="none" stroke="#231F20" stroke-linecap="round" stroke-linejoin="round" stroke-miterlimit="10" stroke-width="3" x1="62.166" x2="69.62" y1="95.052" y2="49.661"/><polyline fill="none" points="    55.499,100.416 62.201,95.605 67.012,102.309   " stroke="#231F20" stroke-linecap="round" stroke-linejoin="round" stroke-miterlimit="10" stroke-width="3"/><polyline fill="none" points="    76.432,44.952 69.73,49.764 64.92,43.061   " stroke="#231F20" stroke-linecap="round" stroke-linejoin="round" stroke-miterlimit="10" stroke-width="3"/></g><g><line fill="none" stroke="#231F20" stroke-linecap="round" stroke-linejoin="round" stroke-miterlimit="10" stroke-width="1.6096" x1="457.479" x2="457.479" y1="357.261" y2="332.58"/><polyline fill="none" points="    454.416,360.681 457.545,357.551 460.676,360.681   " stroke="#231F20" stroke-linecap="round" stroke-linejoin="round" stroke-miterlimit="10" stroke-width="1.6096"/><polyline fill="none" points="    460.676,329.495 457.545,332.625 454.416,329.495   " stroke="#231F20" stroke-linecap="round" stroke-linejoin="round" stroke-miterlimit="10" stroke-width="1.6096"/><line fill="none" stroke="#231F20" stroke-linecap="round" stroke-linejoin="round" stroke-miterlimit="10" stroke-width="1.6096" x1="468.053" x2="446.68" y1="351.232" y2="338.893"/><polyline fill="none" points="    469.483,355.595 468.338,351.319 472.613,350.174   " stroke="#231F20" stroke-linecap="round" stroke-linejoin="round" stroke-miterlimit="10" stroke-width="1.6096"/><polyline fill="none" points="    445.606,334.581 446.752,338.856 442.477,340.002   " stroke="#231F20" stroke-linecap="round" stroke-linejoin="round" stroke-miterlimit="10" stroke-width="1.6096"/><line fill="none" stroke="#231F20" stroke-linecap="round" stroke-linejoin="round" stroke-miterlimit="10" stroke-width="1.6096" x1="468.119" x2="446.747" y1="339.06" y2="351.399"/><polyline fill="none" points="    472.613,340.003 468.338,338.856 469.484,334.581   " stroke="#231F20" stroke-linecap="round" stroke-linejoin="round" stroke-miterlimit="10" stroke-width="1.6096"/><polyline fill="none" points="    442.477,350.174 446.752,351.319 445.606,355.596   " stroke="#231F20" stroke-linecap="round" stroke-linejoin="round" stroke-miterlimit="10" stroke-width="1.6096"/></g><g><line fill="none" stroke="#231F20" stroke-linecap="round" stroke-linejoin="round" stroke-miterlimit="10" stroke-width="1.6096" x1="468.48" x2="468.48" y1="118.293" y2="93.612"/><polyline fill="none" points="    465.418,121.713 468.547,118.583 471.677,121.713   " stroke="#231F20" stroke-linecap="round" stroke-linejoin="round" stroke-miterlimit="10" stroke-width="1.6096"/><polyline fill="none" points="    471.677,90.527 468.547,93.657 465.418,90.527   " stroke="#231F20" stroke-linecap="round" stroke-linejoin="round" stroke-miterlimit="10" stroke-width="1.6096"/><line fill="none" stroke="#231F20" stroke-linecap="round" stroke-linejoin="round" stroke-miterlimit="10" stroke-width="1.6096" x1="479.055" x2="457.682" y1="112.265" y2="99.925"/><polyline fill="none" points="    480.484,116.627 479.34,112.352 483.615,111.206   " stroke="#231F20" stroke-linecap="round" stroke-linejoin="round" stroke-miterlimit="10" stroke-width="1.6096"/><polyline fill="none" points="    456.607,95.613 457.754,99.889 453.479,101.034   " stroke="#231F20" stroke-linecap="round" stroke-linejoin="round" stroke-miterlimit="10" stroke-width="1.6096"/><line fill="none" stroke="#231F20" stroke-linecap="round" stroke-linejoin="round" stroke-miterlimit="10" stroke-width="1.6096" x1="479.121" x2="457.748" y1="100.092" y2="112.432"/><polyline fill="none" points="    483.615,101.035 479.34,99.889 480.485,95.613   " stroke="#231F20" stroke-linecap="round" stroke-linejoin="round" stroke-miterlimit="10" stroke-width="1.6096"/><polyline fill="none" points="    453.479,111.206 457.754,112.352 456.607,116.628   " stroke="#231F20" stroke-linecap="round" stroke-linejoin="round" stroke-miterlimit="10" stroke-width="1.6096"/></g><g><line fill="none" stroke="#231F20" stroke-linecap="round" stroke-linejoin="round" stroke-miterlimit="10" stroke-width="3" x1="102.612" x2="102.612" y1="182.705" y2="136.705"/><rect fill="none" height="8.25" stroke="#231F20" stroke-linecap="round" stroke-linejoin="round" stroke-miterlimit="10" stroke-width="3" transform="matrix(-0.7071 -0.7071 0.7071 -0.7071 41.6837 395.4261)" width="8.25" x="98.612" y="184.955"/><rect fill="none" height="8.25" stroke="#231F20" stroke-linecap="round" stroke-linejoin="round" stroke-miterlimit="10" stroke-width="3" transform="matrix(-0.7071 -0.7071 0.7071 -0.7071 82.7843 296.2005)" width="8.25" x="98.612" y="126.83"/><line fill="none" stroke="#231F20" stroke-linecap="round" stroke-linejoin="round" stroke-miterlimit="10" stroke-width="3" x1="122.322" x2="82.485" y1="171.47" y2="148.47"/><rect fill="none" height="8.251" stroke="#231F20" stroke-linecap="round" stroke-linejoin="round" stroke-miterlimit="10" stroke-width="3" transform="matrix(-0.9659 0.2589 -0.2589 -0.9659 296.6381 310.0353)" width="8.25" x="123.781" y="170.423"/><rect fill="none" height="8.251" stroke="#231F20" stroke-linecap="round" stroke-linejoin="round" stroke-miterlimit="10" stroke-width="3" transform="matrix(-0.9659 0.2589 -0.2589 -0.9659 190.1593 265.9288)" width="8.249" x="73.444" y="141.361"/><line fill="none" stroke="#231F20" stroke-linecap="round" stroke-linejoin="round" stroke-miterlimit="10" stroke-width="3" x1="122.447" x2="82.61" y1="148.783" y2="171.782"/><rect fill="none" height="8.251" stroke="#231F20" stroke-linecap="round" stroke-linejoin="round" stroke-miterlimit="10" stroke-width="3" transform="matrix(-0.2589 0.9659 -0.9659 -0.2589 301.5443 59.6052)" width="8.25" x="123.78" y="141.361"/><rect fill="none" height="8.251" stroke="#231F20" stroke-linecap="round" stroke-linejoin="round" stroke-miterlimit="10" stroke-width="3" transform="matrix(-0.2588 0.9659 -0.9659 -0.2588 266.2444 144.7963)" width="8.249" x="73.443" y="170.423"/></g><g><line fill="none" stroke="#231F20" stroke-linecap="round" stroke-linejoin="round" stroke-miterlimit="10" stroke-width="1.4238" x1="30.821" x2="47.709" y1="132.23" y2="146.066"/><rect fill="none" height="3.917" stroke="#231F20" stroke-linecap="round" stroke-linejoin="round" stroke-miterlimit="10" stroke-width="1.4238" transform="matrix(0.9951 -0.099 0.099 0.9951 -12.767 3.4567)" width="3.916" x="26.485" y="128.4"/><rect fill="none" height="3.917" stroke="#231F20" stroke-linecap="round" stroke-linejoin="round" stroke-miterlimit="10" stroke-width="1.4238" transform="matrix(0.9951 -0.099 0.099 0.9951 -14.3931 5.6553)" width="3.916" x="47.824" y="145.883"/><line fill="none" stroke="#231F20" stroke-linecap="round" stroke-linejoin="round" stroke-miterlimit="10" stroke-width="1.4238" x1="29.019" x2="49.443" y1="142.846" y2="135.139"/><rect fill="none" height="3.916" stroke="#231F20" stroke-linecap="round" stroke-linejoin="round" stroke-miterlimit="10" stroke-width="1.4238" transform="matrix(0.412 -0.9112 0.9112 0.412 -115.7741 108.5406)" width="3.916" x="24.25" y="142.012"/><rect fill="none" height="3.916" stroke="#231F20" stroke-linecap="round" stroke-linejoin="round" stroke-miterlimit="10" stroke-width="1.4238" transform="matrix(0.4119 -0.9112 0.9112 0.4119 -91.7235 126.3342)" width="3.914" x="50.06" y="132.273"/><line fill="none" stroke="#231F20" stroke-linecap="round" stroke-linejoin="round" stroke-miterlimit="10" stroke-width="1.4238" x1="37.309" x2="40.847" y1="149.715" y2="128.174"/><rect fill="none" height="3.917" stroke="#231F20" stroke-linecap="round" stroke-linejoin="round" stroke-miterlimit="10" stroke-width="1.4238" transform="matrix(-0.5831 -0.8124 0.8124 -0.5831 -65.6747 271.72)" width="3.915" x="34.919" y="150.752"/><rect fill="none" height="3.915" stroke="#231F20" stroke-linecap="round" stroke-linejoin="round" stroke-miterlimit="10" stroke-width="1.4238" transform="matrix(-0.5833 -0.8123 0.8123 -0.5833 -36.4675 232.2692)" width="3.915" x="39.391" y="123.532"/></g><path d="   M63.315,483.598c0,0,40.795-2.03,69.59-0.111s60.483-1.628,93.809-2.604c33.325-0.975,91.986-2.531,120.814,0.053   c28.83,2.584,104.672-2.489,104.672-2.489" fill="none" stroke="#231F20" stroke-linecap="round" stroke-linejoin="round" stroke-miterlimit="10" stroke-width="6"/><path d="   M383.846,441.791c0,0,27.3-1.346,39.984-1.304c12.685,0.043,13.743,8.001,25.729,7.41c11.985-0.591,38.521-3.901,38.521-3.901" fill="none" stroke="#231F20" stroke-linecap="round" stroke-linejoin="round" stroke-miterlimit="10" stroke-width="6"/><path d="   M413.049,409.185c0,0,10.556-2.522,17.978-0.886c7.423,1.637,16.474,9.2,24.398,7.475" fill="none" stroke="#231F20" stroke-linecap="round" stroke-linejoin="round" stroke-miterlimit="10" stroke-width="6"/><path d="   M85.444,404.412c0,0-12.586,1.956-24.637,1.215c-12.051-0.742-14.344-6.636-21.569-4.277s-17.115,4.849-17.115,4.849" fill="none" stroke="#231F20" stroke-linecap="round" stroke-linejoin="round" stroke-miterlimit="10" stroke-width="6"/><path d="   M88.137,451.237c0,0-20.543,3.015-28.729-0.586c-8.188-3.602-24.572,2.546-24.572,2.546" fill="none" stroke="#231F20" stroke-linecap="round" stroke-linejoin="round" stroke-miterlimit="10" stroke-width="6"/><path d="   M342.421,279.109c0,0-4.402-58.855-39.096-112.712c-34.693-53.857-25.557-122.391,17.873-135.044s93.576,9.404,66.338,76.326   c3.138,12.861,22.828,26.408,22.828,26.408s-23.503,10.67-48.925-2.344c-11.743,46.134,32.691,102.933,52.938,141.316   c20.247,38.383,17.951,154.302-43.035,206.868c-66.067,0.253-247.192,2.172-247.192,2.172s-26.12-32.253-26.858-47.234   c-30.332-6.015-31.795-56.003-31.795-56.003s33.301-25.17,64.165-28.693c24.041-30.221,64.222-37.708,64.222-37.708   S231.774,258.531,342.421,279.109z" fill="#FFFFFF" stroke="#231F20" stroke-linecap="round" stroke-linejoin="round" stroke-miterlimit="10" stroke-width="6"/><path d="   M365.415,105.767c-1.076,2.338-1.883,4.771-2.482,7.17c-2.426,9.688-1.493,18.808-1.493,18.808   c25.422,13.014,48.925,2.344,48.925,2.344s-19.69-13.547-22.828-26.408c0,0-6.615-2.177-12.361,3.112" fill="#CCCCCC" stroke="#231F20" stroke-linecap="round" stroke-linejoin="round" stroke-miterlimit="10" stroke-width="6"/><circle cx="381.903" cy="76.487" fill="#231F20" r="4"/><path d="M78.897,379.574c0,0,2.191,43.198,31.009,48.912c0.7,14.232,24.713,49.165,24.713,49.165   s172.071-1.822,234.837-2.063c0.844-0.728,1.673-1.47,2.493-2.223c-71.182-23.354-207.697,4.235-238.71-65.546   C114.573,365.819,78.897,379.574,78.897,379.574z" fill="#E5E5E5"/><path d="   M342.421,279.109c-110.646-20.578-148.537,33.353-148.537,33.353c-18.844,23.957-45.582,90.854-45.582,90.854   c49.988-1.463,60.137,52.103,115.735,62.879c55.598,10.775,150.855-26.96,129.913-106.525" fill="#FFFFFF" stroke="#231F20" stroke-linecap="round" stroke-linejoin="round" stroke-miterlimit="10" stroke-width="6"/><path d="M203.119,415.849c16.997,14.33,32.065,33.884,61.783,39.644c44.165,8.56,116.565-17.417,117.751-73.669   C342.572,447.819,191.933,406.416,203.119,415.849z" fill="#E5E5E5"/><line fill="none" stroke="#231F20" stroke-linecap="round" stroke-linejoin="round" stroke-miterlimit="10" stroke-width="3" x1="175.238" x2="162.57" y1="365.154" y2="391.82"/><line fill="none" stroke="#231F20" stroke-linecap="round" stroke-linejoin="round" stroke-miterlimit="10" stroke-width="3" x1="177.905" x2="169.905" y1="374.486" y2="391.486"/><line fill="none" stroke="#231F20" stroke-linecap="round" stroke-linejoin="round" stroke-miterlimit="10" stroke-width="3" x1="182.405" x2="177.405" y1="381.486" y2="392.486"/><path d="   M320.57,176.485c0,0,21.335,40.501,23.835,61.001" fill="none" stroke="#231F20" stroke-linecap="round" stroke-linejoin="round" stroke-miterlimit="10" stroke-width="3"/><path d="   M339.405,199.986c0,0,8.5,20,9.5,28.5" fill="none" stroke="#231F20" stroke-linecap="round" stroke-linejoin="round" stroke-miterlimit="10" stroke-width="3"/></g></svg>